<svg width="463" height="284" viewBox="0 0 463 284" fill="none" xmlns="http://www.w3.org/2000/svg">
<path fill-rule="evenodd" clip-rule="evenodd" d="M154.058 65.6341L173.628 32.2549C181.975 18.0169 171.831 0 155.468 0H57.4261C41.0627 0 30.919 18.0169 39.2663 32.2549L62.0742 71.1578C24.3707 106.774 0 177.408 0 224.271C0 284.53 40.2961 284.29 97.4201 283.951C101.8 283.925 106.279 283.898 110.846 283.898C115.441 283.898 119.916 283.925 124.263 283.951C179 284.281 213.552 284.489 215.451 229.206C218.997 227.832 222.462 226.219 225.822 224.371C240.016 216.566 251.765 204.895 259.737 190.68C267.71 176.465 271.586 160.275 270.928 143.945C270.27 127.615 265.103 111.798 256.013 98.2866C246.923 84.7755 234.274 74.1104 219.498 67.5003C204.723 60.8902 188.413 58.5993 172.416 60.8874C166.114 61.7888 159.96 63.3867 154.058 65.6341ZM213.735 198.635C221.226 194.344 227.71 188.405 232.687 181.218C239.194 171.821 242.839 160.703 243.172 149.235C243.505 137.767 240.512 126.452 234.562 116.685C228.612 106.918 219.965 99.1269 209.689 94.2736C199.413 89.4203 187.957 87.7171 176.735 89.374C175.802 89.5117 174.875 89.672 173.953 89.8547C195.079 120.292 209 162.619 213.735 198.635Z" fill="black"/>
<path d="M341.426 196.325V191.858C341.514 176.529 342.872 164.309 345.499 155.2C348.215 146.09 352.157 138.732 357.325 133.126C362.493 127.52 368.712 122.439 375.982 117.884C381.413 114.38 386.275 110.745 390.567 106.979C394.859 103.212 398.275 99.0514 400.815 94.4964C403.356 89.8539 404.626 84.6858 404.626 78.9922C404.626 72.9481 403.181 67.6487 400.29 63.0938C397.399 58.5388 393.501 55.035 388.596 52.5824C383.778 50.1297 378.435 48.9034 372.566 48.9034C366.873 48.9034 361.485 50.1735 356.405 52.7138C351.324 55.1664 347.164 58.8454 343.923 63.7507C340.682 68.5684 338.93 74.5687 338.667 81.7514H285.059C285.497 64.2325 289.702 49.7793 297.673 38.392C305.644 26.9171 316.199 18.3767 329.338 12.7706C342.477 7.07693 356.974 4.2301 372.829 4.2301C390.26 4.2301 405.677 7.12073 419.079 12.902C432.481 18.5956 442.992 26.8733 450.613 37.7351C458.234 48.5968 462.044 61.6922 462.044 77.0213C462.044 87.2699 460.336 96.3797 456.92 104.351C453.591 112.234 448.905 119.242 442.861 125.374C436.817 131.418 429.678 136.892 421.444 141.798C414.524 145.915 408.83 150.207 404.363 154.674C399.983 159.141 396.699 164.309 394.509 170.178C392.406 176.047 391.311 183.274 391.224 191.858V196.325H341.426ZM367.442 280.416C358.682 280.416 351.193 277.35 344.974 271.219C338.842 265 335.82 257.554 335.908 248.882C335.82 240.298 338.842 232.94 344.974 226.808C351.193 220.677 358.682 217.611 367.442 217.611C375.763 217.611 383.078 220.677 389.384 226.808C395.691 232.94 398.888 240.298 398.976 248.882C398.888 254.663 397.355 259.963 394.377 264.781C391.487 269.511 387.676 273.321 382.946 276.212C378.216 279.015 373.048 280.416 367.442 280.416Z" fill="black"/>
</svg>
