<svg width="329" height="198" viewBox="0 0 329 198" fill="none" xmlns="http://www.w3.org/2000/svg">
<path d="M309.984 160.182V182H307.342V162.952H307.214L301.887 166.489V163.804L307.342 160.182H309.984Z" fill="black"/>
<path d="M297.259 37V35.0824L304.46 27.1989C305.305 26.2756 306.001 25.473 306.548 24.7912C307.095 24.1023 307.5 23.456 307.763 22.8523C308.033 22.2415 308.168 21.6023 308.168 20.9347C308.168 20.1676 307.983 19.5036 307.614 18.9425C307.251 18.3814 306.754 17.9482 306.122 17.6428C305.49 17.3374 304.78 17.1847 303.991 17.1847C303.153 17.1847 302.422 17.3587 301.797 17.7067C301.179 18.0476 300.7 18.527 300.359 19.1449C300.025 19.7628 299.858 20.4872 299.858 21.3182H297.344C297.344 20.0398 297.638 18.9176 298.228 17.9517C298.817 16.9858 299.62 16.233 300.636 15.6932C301.658 15.1534 302.805 14.8835 304.077 14.8835C305.355 14.8835 306.488 15.1534 307.475 15.6932C308.462 16.233 309.237 16.9609 309.798 17.8771C310.359 18.7933 310.639 19.8125 310.639 20.9347C310.639 21.7372 310.494 22.522 310.202 23.2891C309.918 24.049 309.421 24.8977 308.711 25.8352C308.008 26.7656 307.031 27.902 305.781 29.2443L300.881 34.4858V34.6562H311.023V37H297.259Z" fill="black"/>
<path d="M164.631 37.2983C163.224 37.2983 161.971 37.0568 160.87 36.5739C159.776 36.0909 158.906 35.4197 158.26 34.5604C157.621 33.6939 157.273 32.6889 157.216 31.5455H159.901C159.957 32.2486 160.199 32.8558 160.625 33.3672C161.051 33.8714 161.609 34.2621 162.298 34.5391C162.987 34.8161 163.75 34.9545 164.588 34.9545C165.526 34.9545 166.357 34.7912 167.081 34.4645C167.805 34.1378 168.374 33.6832 168.786 33.1009C169.197 32.5185 169.403 31.8438 169.403 31.0767C169.403 30.2741 169.205 29.5675 168.807 28.9567C168.409 28.3388 167.827 27.8558 167.06 27.5078C166.293 27.1598 165.355 26.9858 164.247 26.9858H162.5V24.642H164.247C165.114 24.642 165.874 24.4858 166.527 24.1733C167.188 23.8608 167.702 23.4205 168.072 22.8523C168.448 22.2841 168.636 21.6165 168.636 20.8494C168.636 20.1108 168.473 19.468 168.146 18.9212C167.82 18.3743 167.358 17.9482 166.761 17.6428C166.172 17.3374 165.476 17.1847 164.673 17.1847C163.92 17.1847 163.21 17.3232 162.543 17.6001C161.882 17.87 161.342 18.2642 160.923 18.7827C160.504 19.294 160.277 19.9119 160.241 20.6364H157.685C157.727 19.4929 158.072 18.4915 158.718 17.6321C159.364 16.7656 160.21 16.0909 161.254 15.608C162.305 15.125 163.459 14.8835 164.716 14.8835C166.065 14.8835 167.223 15.157 168.189 15.7038C169.155 16.2436 169.897 16.9574 170.415 17.8452C170.934 18.733 171.193 19.6918 171.193 20.7216C171.193 21.9503 170.87 22.9979 170.224 23.8643C169.585 24.7308 168.714 25.331 167.614 25.6648V25.8352C168.991 26.0625 170.067 26.6484 170.842 27.593C171.616 28.5305 172.003 29.6918 172.003 31.0767C172.003 32.2628 171.68 33.3281 171.033 34.2727C170.394 35.2102 169.521 35.9489 168.413 36.4886C167.305 37.0284 166.044 37.2983 164.631 37.2983Z" fill="black"/>
<path d="M16.7472 32.5256V30.3523L26.3352 15.1818H27.9119V18.5483H26.8466L19.6023 30.0114V30.1818H32.5142V32.5256H16.7472ZM27.017 37V31.8651V30.853V15.1818H29.5312V37H27.017Z" fill="black"/>
<path d="M24.0767 182.298C22.8267 182.298 21.701 182.05 20.6996 181.553C19.6982 181.055 18.8956 180.374 18.2919 179.507C17.6882 178.641 17.358 177.653 17.3011 176.545H19.858C19.9574 177.533 20.4048 178.349 21.2003 178.996C22.0028 179.635 22.9616 179.955 24.0767 179.955C24.9716 179.955 25.767 179.745 26.4631 179.326C27.1662 178.907 27.7166 178.332 28.1143 177.6C28.5192 176.862 28.7216 176.027 28.7216 175.097C28.7216 174.145 28.5121 173.296 28.093 172.55C27.6811 171.798 27.1129 171.205 26.3885 170.771C25.6641 170.338 24.8366 170.118 23.9062 170.111C23.2386 170.104 22.5533 170.207 21.8501 170.42C21.147 170.626 20.5682 170.892 20.1136 171.219L17.642 170.92L18.9631 160.182H30.2983V162.526H21.179L20.4119 168.96H20.5398C20.9872 168.605 21.5483 168.31 22.223 168.076C22.8977 167.842 23.6009 167.724 24.3324 167.724C25.6676 167.724 26.8572 168.044 27.9013 168.683C28.9524 169.315 29.7763 170.182 30.3729 171.283C30.9766 172.384 31.2784 173.641 31.2784 175.054C31.2784 176.446 30.9659 177.689 30.3409 178.783C29.723 179.869 28.8707 180.729 27.7841 181.361C26.6974 181.986 25.4616 182.298 24.0767 182.298Z" fill="black"/>
<path d="M166.503 182.298C165.608 182.284 164.713 182.114 163.818 181.787C162.923 181.46 162.107 180.91 161.368 180.136C160.629 179.354 160.036 178.3 159.589 176.972C159.141 175.636 158.918 173.96 158.918 171.943C158.918 170.011 159.099 168.3 159.461 166.808C159.823 165.31 160.349 164.049 161.038 163.026C161.727 161.996 162.558 161.215 163.531 160.683C164.511 160.15 165.615 159.884 166.844 159.884C168.065 159.884 169.152 160.129 170.104 160.619C171.063 161.102 171.844 161.776 172.447 162.643C173.051 163.509 173.442 164.507 173.619 165.636H171.02C170.778 164.656 170.31 163.843 169.614 163.197C168.918 162.55 167.994 162.227 166.844 162.227C165.153 162.227 163.822 162.962 162.849 164.433C161.883 165.903 161.396 167.966 161.389 170.622H161.56C161.957 170.018 162.43 169.504 162.977 169.077C163.531 168.644 164.141 168.31 164.809 168.076C165.477 167.842 166.183 167.724 166.929 167.724C168.179 167.724 169.322 168.037 170.359 168.662C171.396 169.28 172.227 170.136 172.852 171.229C173.477 172.316 173.79 173.562 173.79 174.969C173.79 176.318 173.488 177.554 172.884 178.676C172.281 179.791 171.432 180.679 170.338 181.339C169.251 181.993 167.973 182.312 166.503 182.298ZM166.503 179.955C167.398 179.955 168.2 179.731 168.911 179.283C169.628 178.836 170.192 178.236 170.604 177.483C171.023 176.73 171.233 175.892 171.233 174.969C171.233 174.067 171.031 173.246 170.626 172.508C170.228 171.762 169.678 171.169 168.974 170.729C168.278 170.288 167.483 170.068 166.588 170.068C165.913 170.068 165.285 170.203 164.702 170.473C164.12 170.736 163.609 171.098 163.168 171.56C162.735 172.021 162.394 172.55 162.146 173.147C161.897 173.737 161.773 174.358 161.773 175.011C161.773 175.878 161.975 176.687 162.38 177.44C162.792 178.193 163.353 178.8 164.063 179.262C164.781 179.724 165.594 179.955 166.503 179.955Z" fill="black"/>
<line x1="329" y1="1" x2="2" y2="1" stroke="black" stroke-width="2"/>
<line x1="329" y1="197" x2="2" y2="197" stroke="black" stroke-width="2"/>
<line x1="328" y1="196" x2="328" y2="-4.37114e-08" stroke="black" stroke-width="2"/>
<line x1="1" y1="198" x2="1.00001" y2="-4.37114e-08" stroke="black" stroke-width="2"/>
<line x1="329" y1="1" x2="2" y2="1" stroke="black" stroke-width="2"/>
</svg>
