<svg width="198" height="329" viewBox="0 0 198 329" fill="none" xmlns="http://www.w3.org/2000/svg">
<path d="M181.984 13.1818V35H179.342V15.9517H179.214L173.887 19.4886V16.804L179.342 13.1818H181.984Z" fill="black"/>
<path d="M14.2585 35V33.0824L21.4602 25.1989C22.3054 24.2756 23.0014 23.473 23.5483 22.7912C24.0952 22.1023 24.5 21.456 24.7628 20.8523C25.0327 20.2415 25.1676 19.6023 25.1676 18.9347C25.1676 18.1676 24.983 17.5036 24.6136 16.9425C24.2514 16.3814 23.7543 15.9482 23.1222 15.6428C22.4901 15.3374 21.7798 15.1847 20.9915 15.1847C20.1534 15.1847 19.4219 15.3587 18.7969 15.7067C18.179 16.0476 17.6996 16.527 17.3587 17.1449C17.0249 17.7628 16.858 18.4872 16.858 19.3182H14.3438C14.3438 18.0398 14.6385 16.9176 15.228 15.9517C15.8175 14.9858 16.62 14.233 17.6357 13.6932C18.6584 13.1534 19.8054 12.8835 21.0767 12.8835C22.3551 12.8835 23.4879 13.1534 24.4751 13.6932C25.4624 14.233 26.2365 14.9609 26.7976 15.8771C27.3587 16.7933 27.6392 17.8125 27.6392 18.9347C27.6392 19.7372 27.4936 20.522 27.2024 21.2891C26.9183 22.049 26.4212 22.8977 25.7109 23.8352C25.0078 24.7656 24.0312 25.902 22.7812 27.2443L17.8807 32.4858V32.6562H28.0227V35H14.2585Z" fill="black"/>
<path d="M21.6307 174.298C20.2244 174.298 18.9709 174.057 17.87 173.574C16.7763 173.091 15.9063 172.42 15.2599 171.56C14.6207 170.694 14.2727 169.689 14.2159 168.545H16.9006C16.9574 169.249 17.1989 169.856 17.625 170.367C18.0511 170.871 18.6087 171.262 19.2976 171.539C19.9865 171.816 20.75 171.955 21.5881 171.955C22.5256 171.955 23.3565 171.791 24.081 171.464C24.8054 171.138 25.3736 170.683 25.7855 170.101C26.1974 169.518 26.4034 168.844 26.4034 168.077C26.4034 167.274 26.2045 166.567 25.8068 165.957C25.4091 165.339 24.8267 164.856 24.0597 164.508C23.2926 164.16 22.3551 163.986 21.2472 163.986H19.5V161.642H21.2472C22.1136 161.642 22.8736 161.486 23.527 161.173C24.1875 160.861 24.7024 160.42 25.0717 159.852C25.4482 159.284 25.6364 158.616 25.6364 157.849C25.6364 157.111 25.473 156.468 25.1463 155.921C24.8196 155.374 24.358 154.948 23.7614 154.643C23.1719 154.337 22.4759 154.185 21.6733 154.185C20.9205 154.185 20.2102 154.323 19.5426 154.6C18.8821 154.87 18.3423 155.264 17.9233 155.783C17.5043 156.294 17.277 156.912 17.2415 157.636H14.6847C14.7273 156.493 15.0717 155.491 15.718 154.632C16.3643 153.766 17.2095 153.091 18.2536 152.608C19.3047 152.125 20.4588 151.884 21.7159 151.884C23.0653 151.884 24.223 152.157 25.1889 152.704C26.1548 153.244 26.897 153.957 27.4155 154.845C27.9339 155.733 28.1932 156.692 28.1932 157.722C28.1932 158.95 27.87 159.998 27.2237 160.864C26.5845 161.731 25.7145 162.331 24.6136 162.665V162.835C25.9915 163.062 27.0675 163.648 27.8416 164.593C28.6158 165.531 29.0028 166.692 29.0028 168.077C29.0028 169.263 28.6797 170.328 28.0334 171.273C27.3942 172.21 26.5206 172.949 25.4126 173.489C24.3047 174.028 23.044 174.298 21.6307 174.298Z" fill="black"/>
<path d="M13.7472 308.526V306.352L23.3352 291.182H24.9119V294.548H23.8466L16.6023 306.011V306.182H29.5142V308.526H13.7472ZM24.017 313V307.865V306.853V291.182H26.5312V313H24.017Z" fill="black"/>
<path d="M175.077 313.298C173.827 313.298 172.701 313.05 171.7 312.553C170.698 312.055 169.896 311.374 169.292 310.507C168.688 309.641 168.358 308.653 168.301 307.545H170.858C170.957 308.533 171.405 309.349 172.2 309.996C173.003 310.635 173.962 310.955 175.077 310.955C175.972 310.955 176.767 310.745 177.463 310.326C178.166 309.907 178.717 309.332 179.114 308.6C179.519 307.862 179.722 307.027 179.722 306.097C179.722 305.145 179.512 304.296 179.093 303.55C178.681 302.798 178.113 302.205 177.388 301.771C176.664 301.338 175.837 301.118 174.906 301.111C174.239 301.104 173.553 301.207 172.85 301.42C172.147 301.626 171.568 301.892 171.114 302.219L168.642 301.92L169.963 291.182H181.298V293.526H172.179L171.412 299.96H171.54C171.987 299.605 172.548 299.31 173.223 299.076C173.898 298.842 174.601 298.724 175.332 298.724C176.668 298.724 177.857 299.044 178.901 299.683C179.952 300.315 180.776 301.182 181.373 302.283C181.977 303.384 182.278 304.641 182.278 306.054C182.278 307.446 181.966 308.689 181.341 309.783C180.723 310.869 179.871 311.729 178.784 312.361C177.697 312.986 176.462 313.298 175.077 313.298Z" fill="black"/>
<path d="M179.503 174.298C178.608 174.284 177.713 174.114 176.818 173.787C175.923 173.46 175.107 172.91 174.368 172.136C173.629 171.354 173.036 170.3 172.589 168.972C172.141 167.636 171.918 165.96 171.918 163.943C171.918 162.011 172.099 160.3 172.461 158.808C172.823 157.31 173.349 156.049 174.038 155.026C174.727 153.996 175.558 153.215 176.531 152.683C177.511 152.15 178.615 151.884 179.844 151.884C181.065 151.884 182.152 152.129 183.104 152.619C184.063 153.102 184.844 153.776 185.447 154.643C186.051 155.509 186.442 156.507 186.619 157.636H184.02C183.778 156.656 183.31 155.843 182.614 155.197C181.918 154.55 180.994 154.227 179.844 154.227C178.153 154.227 176.822 154.962 175.849 156.433C174.883 157.903 174.396 159.966 174.389 162.622H174.56C174.957 162.018 175.43 161.504 175.977 161.077C176.531 160.644 177.141 160.31 177.809 160.076C178.477 159.842 179.183 159.724 179.929 159.724C181.179 159.724 182.322 160.037 183.359 160.662C184.396 161.28 185.227 162.136 185.852 163.229C186.477 164.316 186.79 165.562 186.79 166.969C186.79 168.318 186.488 169.554 185.884 170.676C185.281 171.791 184.432 172.679 183.338 173.339C182.251 173.993 180.973 174.312 179.503 174.298ZM179.503 171.955C180.398 171.955 181.2 171.731 181.911 171.283C182.628 170.836 183.192 170.236 183.604 169.483C184.023 168.73 184.233 167.892 184.233 166.969C184.233 166.067 184.031 165.246 183.626 164.508C183.228 163.762 182.678 163.169 181.974 162.729C181.278 162.288 180.483 162.068 179.588 162.068C178.913 162.068 178.285 162.203 177.702 162.473C177.12 162.736 176.609 163.098 176.168 163.56C175.735 164.021 175.394 164.55 175.146 165.147C174.897 165.737 174.773 166.358 174.773 167.011C174.773 167.878 174.975 168.687 175.38 169.44C175.792 170.193 176.353 170.8 177.063 171.262C177.781 171.724 178.594 171.955 179.503 171.955Z" fill="black"/>
<line x1="1" y1="7.62939e-06" x2="1" y2="327" stroke="black" stroke-width="2"/>
<line x1="197" y1="7.62939e-06" x2="197" y2="35" stroke="black" stroke-width="2"/>
<line x1="196" y1="1.00001" x2="-4.37114e-08" y2="0.999999" stroke="black" stroke-width="2"/>
<line x1="198" y1="328" x2="-4.37114e-08" y2="328" stroke="black" stroke-width="2"/>
<line x1="197" y1="292" x2="197" y2="327" stroke="black" stroke-width="2"/>
<line x1="197" y1="79" x2="197" y2="247" stroke="black" stroke-width="2"/>
<line x1="1" y1="7.62939e-06" x2="1" y2="327" stroke="black" stroke-width="2"/>
</svg>
